<svg viewBox="0 0 133 64" fill="none" xmlns="http://www.w3.org/2000/svg">
<path d="M89.2049 25.4536C88.9607 25.6976 88.6621 25.806 88.3365 25.806C87.9565 25.806 87.6851 25.6976 87.4409 25.4536C87.2238 25.2097 87.1152 24.9386 87.1152 24.5862V9.54171C87.1152 9.21643 87.2238 8.91825 87.468 8.70139C87.7123 8.45743 88.0108 8.349 88.3636 8.349C88.6893 8.349 88.9878 8.45743 89.232 8.70139C89.4763 8.94536 89.5849 9.21643 89.5849 9.54171V24.5862C89.5849 24.9386 89.4763 25.2097 89.2049 25.4536Z" fill="white"/>
<path d="M104.945 22.77C104.376 23.8 103.561 24.6133 102.557 25.1825C101.553 25.7518 100.44 26.0499 99.2192 26.0499C97.998 26.0499 96.8853 25.7518 95.8812 25.1825C94.877 24.6133 94.09 23.8 93.493 22.77C92.923 21.7399 92.6245 20.5743 92.6245 19.2731C92.6245 17.972 92.923 16.8064 93.493 15.7492C94.0629 14.692 94.877 13.8788 95.8812 13.3096C96.8853 12.7403 97.998 12.4421 99.2192 12.4421C100.44 12.4421 101.553 12.7403 102.557 13.3096C103.561 13.8788 104.348 14.7191 104.945 15.7492C105.515 16.8064 105.814 17.972 105.814 19.2731C105.814 20.5743 105.515 21.7399 104.945 22.77ZM102.883 16.8606C102.503 16.1558 101.987 15.6137 101.363 15.2071C100.739 14.8005 100.006 14.6107 99.2192 14.6107C98.4322 14.6107 97.7266 14.8005 97.0753 15.2071C96.4239 15.6137 95.9354 16.1558 95.5555 16.8606C95.1756 17.5654 94.9856 18.3786 94.9856 19.2731C94.9856 20.1677 95.1756 20.9538 95.5555 21.6315C95.9354 22.3363 96.4511 22.8784 97.0753 23.2579C97.7266 23.6374 98.4322 23.8543 99.2192 23.8543C100.006 23.8543 100.712 23.6645 101.363 23.2579C102.015 22.8784 102.503 22.3091 102.883 21.6315C103.263 20.9267 103.453 20.1406 103.453 19.2731C103.453 18.3786 103.263 17.5654 102.883 16.8606Z" fill="white"/>
<path d="M119.872 8.64718C120.089 8.86404 120.197 9.13511 120.197 9.48751C120.197 9.8399 120.089 10.111 119.872 10.3007C119.655 10.4905 119.356 10.5989 119.003 10.5989H114.553V24.5862C114.553 24.9115 114.444 25.2097 114.2 25.4265C113.955 25.6705 113.657 25.7789 113.277 25.7789C112.897 25.7789 112.599 25.6705 112.354 25.4265C112.11 25.1826 112.002 24.9115 112.002 24.5862V10.626H107.578C107.225 10.626 106.954 10.5176 106.709 10.3007C106.492 10.0839 106.384 9.81279 106.384 9.4604C106.384 9.13511 106.492 8.86404 106.709 8.64718C106.927 8.43033 107.225 8.3219 107.578 8.3219H118.976C119.356 8.34901 119.627 8.45743 119.872 8.64718Z" fill="white"/>
<path d="M51.672 32.61H35.9587C33.462 32.61 31.3994 30.5769 31.3994 28.0559V23.5291H56.2042V28.0831C56.2042 30.5769 54.1688 32.61 51.672 32.61ZM32.6478 24.776V28.0831C32.6478 29.8992 34.1404 31.3901 35.9587 31.3901H51.672C53.4903 31.3901 54.983 29.8992 54.983 28.0831V24.776H32.6478Z" fill="#12C671"/>
<path d="M71.9178 24.776H54.9561V20.222C54.9561 17.7281 56.9915 15.668 59.5154 15.668H67.3584C69.8552 15.668 71.9178 17.701 71.9178 20.222V24.776ZM56.2044 23.529H70.6694V20.222C70.6694 18.4058 69.1767 16.9149 67.3584 16.9149H59.5154C57.6971 16.9149 56.2044 18.4058 56.2044 20.222V23.529Z" fill="#12C671"/>
<path d="M28.1159 16.3185H20.2457C18.0746 16.3185 16.3105 18.0804 16.3105 20.249V24.1796H32.0239V20.2219C32.0239 18.0533 30.287 16.3185 28.1159 16.3185Z" fill="#12C671"/>
<path d="M12.4024 32.61H4.5593C2.06254 32.61 0 30.5769 0 28.0559V23.5291H16.9617V28.0831C16.9617 30.5769 14.8991 32.61 12.4024 32.61ZM1.24838 24.776V28.0831C1.24838 29.8992 2.74101 31.3901 4.5593 31.3901H12.4024C14.2207 31.3901 15.7133 29.8992 15.7133 28.0831V24.776H1.24838Z" fill="#12C671"/>
<path d="M32.648 9.0809H7.84326V4.554C7.84326 2.03304 9.9058 0 12.4026 0H28.1159C30.6126 0 32.6752 2.03304 32.6752 4.554V9.0809H32.648ZM9.09164 7.83397H31.3997V4.554C31.3997 2.73782 29.907 1.24693 28.0887 1.24693H12.4026C10.5843 1.24693 9.09164 2.73782 9.09164 4.554V7.83397Z" fill="#12C671"/>
<path d="M32.6479 40.4709H15.7134V35.9169C15.7134 33.4231 17.7488 31.3629 20.2727 31.3629H28.1158C30.6125 31.3629 32.6751 33.396 32.6751 35.9169V40.4709H32.6479ZM16.9618 39.224H31.4267V35.9169C31.4267 34.1007 29.9341 32.6098 28.1158 32.6098H20.2455C18.4272 32.6098 16.9346 34.1007 16.9346 35.9169V39.224H16.9618Z" fill="#12C671"/>
<path d="M43.8018 16.942H35.9587C33.462 16.942 31.3994 14.909 31.3994 12.388V7.83398H48.3611V12.388C48.3611 14.8818 46.3257 16.942 43.8018 16.942ZM32.6478 9.08091V12.388C32.6478 14.2042 34.1404 15.6951 35.9587 15.6951H43.8018C45.6201 15.6951 47.1127 14.2042 47.1127 12.388V9.08091H32.6478Z" fill="#12C671"/>
<path d="M51.6719 0.623535H59.515C61.6861 0.623535 63.4501 2.3855 63.4501 4.55407V8.48461H47.7368V4.55407C47.7368 2.3855 49.5008 0.623535 51.6719 0.623535Z" fill="#12C671"/>
<path d="M51.6719 47.6815H35.9585C33.7875 47.6815 32.0234 45.9195 32.0234 43.751V39.8475H55.5798V43.7781C55.5798 45.9195 53.8158 47.6815 51.6719 47.6815Z" fill="#12C671"/>
<path d="M12.4026 48.3049C9.9058 48.3049 7.84326 46.2719 7.84326 43.7509C7.84326 41.257 9.87866 39.1969 12.4026 39.1969H16.9619V43.7509C16.9619 46.2719 14.8993 48.3049 12.4026 48.3049ZM12.4026 40.4709C10.5843 40.4709 9.09164 41.9618 9.09164 43.778C9.09164 45.5942 10.5843 47.0851 12.4026 47.0851C14.2209 47.0851 15.7135 45.5942 15.7135 43.778V40.4709H12.4026Z" fill="#12C671"/>
<path d="M43.8018 64H35.9587C33.462 64 31.3994 61.9669 31.3994 59.446V54.892H48.3611V59.446C48.3611 61.9398 46.3257 64 43.8018 64ZM32.6478 56.1389V59.446C32.6478 61.2622 34.1404 62.753 35.9587 62.753H43.8018C45.6201 62.753 47.1127 61.2622 47.1127 59.446V56.1389H32.6478Z" fill="#12C671"/>
<path d="M101.906 51.4222C101.173 52.7776 100.169 53.8619 98.8937 54.648C97.6181 55.4341 96.1527 55.8407 94.5515 55.8407C92.9503 55.8407 91.4848 55.4341 90.2093 54.648C88.9338 53.8619 87.9296 52.7776 87.1969 51.4222C86.4641 50.0669 86.1113 48.5489 86.1113 46.8682C86.1113 45.1876 86.4641 43.6696 87.1969 42.3142C87.9296 40.9589 88.9338 39.8746 90.2093 39.0885C91.4848 38.3024 92.9503 37.8958 94.5515 37.8958C96.1527 37.8958 97.6181 38.3024 98.8937 39.0885C100.169 39.8746 101.173 40.9589 101.906 42.3142C102.639 43.6696 102.992 45.1876 102.992 46.8682C102.992 48.5218 102.639 50.0669 101.906 51.4222ZM99.6807 43.4798C99.1922 42.4769 98.4866 41.6908 97.591 41.1215C96.6954 40.5523 95.6913 40.2541 94.5515 40.2541C93.4116 40.2541 92.4075 40.5251 91.5119 41.0944C90.6164 41.6636 89.9379 42.4498 89.4223 43.4527C88.9338 44.4557 88.6624 45.5942 88.6624 46.8682C88.6624 48.1151 88.9066 49.2536 89.4223 50.2566C89.9108 51.2596 90.6164 52.0457 91.5119 52.6149C92.4075 53.1842 93.4116 53.4824 94.5515 53.4824C95.6913 53.4824 96.6954 53.1842 97.591 52.6149C98.4866 52.0457 99.1651 51.2596 99.6807 50.2566C100.169 49.2536 100.441 48.1151 100.441 46.8682C100.413 45.6213 100.169 44.4828 99.6807 43.4798Z" fill="#12C671"/>
<path d="M117.321 42.6666C117.538 42.8835 117.647 43.1817 117.647 43.5612V54.3769C117.647 54.7022 117.538 55.0004 117.321 55.2172C117.104 55.4612 116.805 55.5696 116.452 55.5696C116.1 55.5696 115.828 55.4612 115.611 55.2443C115.394 55.0275 115.285 54.7293 115.285 54.3769V53.7263C114.851 54.2956 114.254 54.8106 113.521 55.2172C112.762 55.6238 111.975 55.8407 111.106 55.8407C109.966 55.8407 108.935 55.5425 108.012 54.9733C107.09 54.404 106.357 53.5908 105.841 52.5336C105.326 51.5036 105.054 50.3379 105.054 49.0368C105.054 47.7357 105.326 46.5701 105.841 45.54C106.357 44.5099 107.09 43.6967 108.012 43.1003C108.935 42.5311 109.939 42.2329 111.025 42.2329C111.893 42.2329 112.734 42.4227 113.494 42.7751C114.254 43.1274 114.851 43.6154 115.313 44.1846V43.5883C115.313 43.2359 115.421 42.9377 115.638 42.7208C115.855 42.4769 116.127 42.3684 116.48 42.3684C116.805 42.3413 117.104 42.4498 117.321 42.6666ZM113.44 53.0487C114.037 52.6421 114.526 52.0999 114.851 51.3951C115.204 50.6903 115.367 49.9042 115.367 49.0368C115.367 48.1694 115.204 47.3833 114.851 46.7056C114.498 46.0008 114.037 45.4587 113.44 45.0521C112.843 44.6454 112.137 44.4286 111.35 44.4286C110.563 44.4286 109.885 44.6183 109.261 45.0249C108.664 45.4316 108.175 45.9737 107.849 46.6785C107.497 47.3833 107.334 48.1694 107.334 49.0368C107.334 49.9313 107.497 50.7175 107.849 51.3951C108.202 52.0999 108.664 52.6421 109.261 53.0487C109.858 53.4553 110.563 53.645 111.35 53.645C112.137 53.645 112.843 53.4282 113.44 53.0487Z" fill="#12C671"/>
<path d="M132.22 54.3769C132.22 54.7022 132.084 55.0003 131.84 55.2172C131.569 55.434 131.324 55.5425 131.026 55.5425C130.673 55.5425 130.375 55.4069 130.157 55.1359L125.245 49.9313L123.753 51.2867V54.3769C123.753 54.7022 123.644 55.0003 123.427 55.2172C123.21 55.4612 122.911 55.5696 122.586 55.5696C122.233 55.5696 121.962 55.4612 121.717 55.2172C121.5 54.9732 121.392 54.7022 121.392 54.3769V38.3294C121.392 38.0041 121.5 37.706 121.717 37.4891C121.934 37.2723 122.233 37.1367 122.586 37.1367C122.911 37.1367 123.21 37.2451 123.427 37.4891C123.644 37.7331 123.753 38.0041 123.753 38.3294V48.4404L129.859 42.8292C130.13 42.5853 130.429 42.4497 130.727 42.4497C130.999 42.4497 131.27 42.5581 131.514 42.8021C131.759 43.0461 131.867 43.29 131.867 43.5611C131.867 43.8864 131.704 44.1846 131.406 44.4557L127.091 48.3049L131.894 53.4823C132.111 53.7805 132.22 54.0787 132.22 54.3769Z" fill="#12C671"/>
</svg>
